<svg id="visual" viewBox="0 0 1600 400" width="1600" height="400" xmlns="http://www.w3.org/2000/svg" xmlns:xlink="http://www.w3.org/1999/xlink" version="1.1"><rect x="0" y="0" width="1600" height="400" fill="#fff"></rect><path d="M0 186L66.7 179C133.3 172 266.7 158 400 165.8C533.3 173.7 666.7 203.3 800 219.5C933.3 235.7 1066.7 238.3 1200 235.8C1333.3 233.3 1466.7 225.7 1533.3 221.8L1600 218L1600 401L1533.3 401C1466.7 401 1333.3 401 1200 401C1066.7 401 933.3 401 800 401C666.7 401 533.3 401 400 401C266.7 401 133.3 401 66.7 401L0 401Z" fill="#001122" stroke-linecap="round" stroke-linejoin="miter"></path></svg>