<svg id="visual" viewBox="0 0 1600 600" width="1600" height="600" xmlns="http://www.w3.org/2000/svg" xmlns:xlink="http://www.w3.org/1999/xlink" version="1.1"><path d="M0 73L88.8 73C177.7 73 355.3 73 533.2 71C711 69 889 65 1066.8 66C1244.7 67 1422.3 73 1511.2 76L1600 79L1600 0L1511.2 0C1422.3 0 1244.7 0 1066.8 0C889 0 711 0 533.2 0C355.3 0 177.7 0 88.8 0L0 0Z" fill="#001122"></path><path d="M0 91L88.8 94C177.7 97 355.3 103 533.2 109C711 115 889 121 1066.8 131C1244.7 141 1422.3 155 1511.2 162L1600 169L1600 77L1511.2 74C1422.3 71 1244.7 65 1066.8 64C889 63 711 67 533.2 69C355.3 71 177.7 71 88.8 71L0 71Z" fill="#1b324a"></path><path d="M0 241L88.8 231C177.7 221 355.3 201 533.2 191C711 181 889 181 1066.8 187C1244.7 193 1422.3 205 1511.2 211L1600 217L1600 167L1511.2 160C1422.3 153 1244.7 139 1066.8 129C889 119 711 113 533.2 107C355.3 101 177.7 95 88.8 92L0 89Z" fill="#385675"></path><path d="M0 313L88.8 309C177.7 305 355.3 297 533.2 285C711 273 889 257 1066.8 249C1244.7 241 1422.3 241 1511.2 241L1600 241L1600 215L1511.2 209C1422.3 203 1244.7 191 1066.8 185C889 179 711 179 533.2 189C355.3 199 177.7 219 88.8 229L0 239Z" fill="#446688"></path><path d="M0 367L88.8 365C177.7 363 355.3 359 533.2 345C711 331 889 307 1066.8 299C1244.7 291 1422.3 299 1511.2 303L1600 307L1600 239L1511.2 239C1422.3 239 1244.7 239 1066.8 247C889 255 711 271 533.2 283C355.3 295 177.7 303 88.8 307L0 311Z" fill="#385675"></path><path d="M0 445L88.8 456C177.7 467 355.3 489 533.2 509C711 529 889 547 1066.8 548C1244.7 549 1422.3 533 1511.2 525L1600 517L1600 305L1511.2 301C1422.3 297 1244.7 289 1066.8 297C889 305 711 329 533.2 343C355.3 357 177.7 361 88.8 363L0 365Z" fill="#1b324a"></path><path d="M0 601L88.8 601C177.7 601 355.3 601 533.2 601C711 601 889 601 1066.8 601C1244.7 601 1422.3 601 1511.2 601L1600 601L1600 515L1511.2 523C1422.3 531 1244.7 547 1066.8 546C889 545 711 527 533.2 507C355.3 487 177.7 465 88.8 454L0 443Z" fill="#001122"></path></svg>